<svg width="27" height="26" viewBox="0 0 27 26" fill="none" xmlns="http://www.w3.org/2000/svg">
<path d="M16.2371 19.8188C16.2694 20.2285 16.0108 20.5752 15.6552 20.6067L10.0302 19.8188C9.64223 19.8504 9.31896 19.5667 9.2543 19.1885L9.8362 15.5013C9.80387 15.1231 10.0625 14.7449 10.4181 14.7134L14.1681 14.2722C14.556 14.2407 14.8793 14.5243 14.944 14.9025L16.2371 19.8188Z" fill="#E8AC37"/>
<path d="M15.6552 20.9219H15.6228L10.0302 20.134C9.48059 20.1655 9.028 19.7558 8.96335 19.2201V19.1255L9.54524 15.4698C9.51292 15.2176 9.6099 14.934 9.77154 14.7449C9.93318 14.5558 10.1595 14.3982 10.4181 14.3667L14.1358 13.957C14.6853 13.894 15.1702 14.3037 15.2672 14.8395L16.5603 19.7243V19.7558C16.625 20.3231 16.2371 20.8273 15.6875 20.8904L15.6552 20.9219ZM9.99783 19.5037H10.0302L15.6228 20.2916C15.7845 20.2601 15.9138 20.071 15.9138 19.8819L14.6207 14.997V14.9655C14.5883 14.7449 14.3944 14.5873 14.2004 14.6189L10.4504 15.0601C10.3534 15.0601 10.2888 15.1231 10.2241 15.1861C10.1595 15.2807 10.1271 15.3752 10.1271 15.5013V15.5958L9.54524 19.2201C9.57757 19.4092 9.77154 19.5667 9.9655 19.5352C9.9655 19.5037 9.99783 19.5037 9.99783 19.5037Z" fill="#E8AC37"/>
<path d="M21.1832 5.54249L19.8254 6.07824L21.3125 18.8419L22.7349 19.031C23.1229 18.9994 23.4461 18.7788 23.4138 18.4007L21.9267 6.17279C21.9267 5.76309 21.5711 5.47946 21.1832 5.54249Z" fill="#E8AC37"/>
<path d="M22.7672 19.3146H22.7349L21.3125 19.1255C21.1508 19.094 21.0539 18.9995 21.0215 18.8419L19.5345 6.07825C19.5021 5.95219 19.5991 5.79461 19.7284 5.76309L21.0862 5.22734C21.1185 5.22734 21.1508 5.19582 21.1832 5.19582C21.4418 5.16431 21.7327 5.22734 21.9267 5.41643C22.153 5.574 22.2823 5.82613 22.3146 6.07825L23.8017 18.3061C23.834 18.5267 23.7694 18.7158 23.6401 18.9049C23.4784 19.1255 23.1875 19.2516 22.8319 19.2831C22.7995 19.3146 22.7995 19.3146 22.7672 19.3146ZM21.6358 18.5267L22.7672 18.6528C22.9289 18.6213 23.0258 18.5898 23.0905 18.4952C23.1228 18.4637 23.1228 18.4322 23.1228 18.3691L21.6358 6.14128C21.6358 6.04673 21.5711 5.95219 21.5064 5.88916C21.4418 5.82613 21.3448 5.79461 21.2802 5.79461L20.2133 6.20431L21.6358 18.5267Z" fill="#E8AC37"/>
<path d="M4.69611 11.9401C4.43749 12.0346 4.04956 12.3182 4.08188 12.6964L4.50214 16.1001C4.53447 16.4782 4.79309 16.8564 5.18102 16.8249L6.60344 17.014L6.05387 11.4358L4.69611 11.9401Z" fill="#E8AC37"/>
<path d="M6.60343 17.2976H6.57111L5.18102 17.1401C4.63145 17.1716 4.24352 16.6673 4.17886 16.1631L3.75861 12.7595C3.69395 12.1922 4.21119 11.7825 4.56679 11.6564L5.89223 11.1207C5.98921 11.0892 6.08619 11.0892 6.18317 11.1522C6.28016 11.2152 6.31248 11.2782 6.34481 11.4043L6.92671 16.9825C6.92671 17.077 6.89438 17.1716 6.82973 17.2346C6.76507 17.2661 6.70042 17.2976 6.60343 17.2976ZM5.18102 16.5098H5.21335L6.24783 16.6358L5.76292 11.877L4.82542 12.2552C4.66378 12.3182 4.40516 12.5073 4.43748 12.6964L4.85774 16.1001C4.89007 16.2892 4.98705 16.5728 5.18102 16.5413C5.14869 16.5098 5.18102 16.5098 5.18102 16.5098Z" fill="#E8AC37"/>
<path d="M6.05386 11.4043L6.60343 16.9825L21.3448 18.8104L19.8577 6.04673L6.05386 11.4043Z" fill="#52AEB0"/>
<path d="M21.3448 19.1255H21.3125L6.57111 17.2976C6.40947 17.2661 6.31249 17.1716 6.28016 17.014L5.73059 11.4358C5.73059 11.3098 5.79525 11.1522 5.92456 11.1207L19.7284 5.76309C19.8254 5.73158 19.9224 5.73158 20.0194 5.79461C20.1164 5.85764 20.1487 5.92067 20.181 6.01522L21.6681 18.7788C21.6681 18.8734 21.6358 18.9679 21.5711 19.031C21.5065 19.094 21.4418 19.1255 21.3448 19.1255ZM6.92671 16.6988L20.9892 18.4322L19.5668 6.48794L6.37714 11.5934L6.92671 16.6988Z" fill="#52AEB0"/>
</svg>
