<svg width="24" height="25" viewBox="0 0 24 25" fill="none" xmlns="http://www.w3.org/2000/svg">
<g id="vuesax/bold/calendar">
<g id="calendar">
<path id="Vector" d="M16.6477 4.23311V2.68349C16.6477 2.27621 16.3103 1.93848 15.9034 1.93848C15.4965 1.93848 15.1591 2.27621 15.1591 2.68349V4.17351H8.70867V2.68349C8.70867 2.27621 8.37126 1.93848 7.96438 1.93848C7.5575 1.93848 7.2201 2.27621 7.2201 2.68349V4.23311C4.54067 4.48144 3.24065 6.08073 3.04217 8.45483C3.02233 8.7429 3.2605 8.9813 3.53836 8.9813H20.3294C20.6172 8.9813 20.8554 8.73297 20.8256 8.45483C20.6272 6.08073 19.3271 4.48144 16.6477 4.23311Z" fill="#8C95A3"/>
<path id="Vector_2" d="M19.8724 10.4712H3.99433C3.44852 10.4712 3.00195 10.9182 3.00195 11.4645V17.5836C3.00195 20.5636 4.49052 22.5503 7.96385 22.5503H15.9029C19.3762 22.5503 20.8648 20.5636 20.8648 17.5836V11.4645C20.8648 10.9182 20.4182 10.4712 19.8724 10.4712ZM9.16464 18.7855C9.11502 18.8252 9.0654 18.8749 9.01578 18.9047C8.95624 18.9444 8.89669 18.9742 8.83715 18.9941C8.77761 19.0239 8.71806 19.0438 8.65852 19.0537C8.58905 19.0636 8.52951 19.0736 8.46005 19.0736C8.33104 19.0736 8.20203 19.0438 8.08294 18.9941C7.95393 18.9444 7.85469 18.8749 7.75546 18.7855C7.57683 18.5968 7.46766 18.3385 7.46766 18.0802C7.46766 17.822 7.57683 17.5637 7.75546 17.375C7.85469 17.2856 7.95393 17.216 8.08294 17.1663C8.26157 17.0869 8.46004 17.067 8.65852 17.1067C8.71806 17.1167 8.77761 17.1365 8.83715 17.1663C8.89669 17.1862 8.95624 17.216 9.01578 17.2557C9.0654 17.2955 9.11502 17.3352 9.16464 17.375C9.34326 17.5637 9.45243 17.822 9.45243 18.0802C9.45243 18.3385 9.34326 18.5968 9.16464 18.7855ZM9.16464 15.3088C8.97608 15.4876 8.71806 15.5969 8.46005 15.5969C8.20203 15.5969 7.94401 15.4876 7.75546 15.3088C7.57683 15.1201 7.46766 14.8618 7.46766 14.6035C7.46766 14.3452 7.57683 14.087 7.75546 13.8982C8.03332 13.6201 8.46997 13.5307 8.83715 13.6896C8.96616 13.7393 9.07532 13.8088 9.16464 13.8982C9.34326 14.087 9.45243 14.3452 9.45243 14.6035C9.45243 14.8618 9.34326 15.1201 9.16464 15.3088ZM12.638 18.7855C12.4494 18.9643 12.1914 19.0736 11.9334 19.0736C11.6754 19.0736 11.4173 18.9643 11.2288 18.7855C11.0502 18.5968 10.941 18.3385 10.941 18.0802C10.941 17.822 11.0502 17.5637 11.2288 17.375C11.596 17.0074 12.2708 17.0074 12.638 17.375C12.8166 17.5637 12.9258 17.822 12.9258 18.0802C12.9258 18.3385 12.8166 18.5968 12.638 18.7855ZM12.638 15.3088C12.5883 15.3485 12.5387 15.3883 12.4891 15.428C12.4296 15.4677 12.37 15.4975 12.3105 15.5174C12.2509 15.5472 12.1914 15.5671 12.1319 15.577C12.0624 15.5869 12.0028 15.5969 11.9334 15.5969C11.6754 15.5969 11.4173 15.4876 11.2288 15.3088C11.0502 15.1201 10.941 14.8618 10.941 14.6035C10.941 14.3452 11.0502 14.087 11.2288 13.8982C11.3181 13.8088 11.4273 13.7393 11.5563 13.6896C11.9235 13.5307 12.3601 13.6201 12.638 13.8982C12.8166 14.087 12.9258 14.3452 12.9258 14.6035C12.9258 14.8618 12.8166 15.1201 12.638 15.3088ZM16.1113 18.7855C15.9227 18.9643 15.6647 19.0736 15.4067 19.0736C15.1487 19.0736 14.8907 18.9643 14.7021 18.7855C14.5235 18.5968 14.4143 18.3385 14.4143 18.0802C14.4143 17.822 14.5235 17.5637 14.7021 17.375C15.0693 17.0074 15.7441 17.0074 16.1113 17.375C16.2899 17.5637 16.3991 17.822 16.3991 18.0802C16.3991 18.3385 16.2899 18.5968 16.1113 18.7855ZM16.1113 15.3088C16.0617 15.3485 16.0121 15.3883 15.9624 15.428C15.9029 15.4677 15.8434 15.4975 15.7838 15.5174C15.7243 15.5472 15.6647 15.5671 15.6052 15.577C15.5357 15.5869 15.4663 15.5969 15.4067 15.5969C15.1487 15.5969 14.8907 15.4876 14.7021 15.3088C14.5235 15.1201 14.4143 14.8618 14.4143 14.6035C14.4143 14.3452 14.5235 14.087 14.7021 13.8982C14.8014 13.8088 14.9006 13.7393 15.0296 13.6896C15.2082 13.6102 15.4067 13.5903 15.6052 13.63C15.6647 13.64 15.7243 13.6598 15.7838 13.6896C15.8434 13.7095 15.9029 13.7393 15.9624 13.779C16.0121 13.8188 16.0617 13.8585 16.1113 13.8982C16.2899 14.087 16.3991 14.3452 16.3991 14.6035C16.3991 14.8618 16.2899 15.1201 16.1113 15.3088Z" fill="#8C95A3"/>
</g>
</g>
</svg>
