<svg width="86" height="86" viewBox="0 0 86 86" fill="none" xmlns="http://www.w3.org/2000/svg">
<g id="Check">
<path id="Vector" d="M43 1.5C20.1147 1.5 1.5 20.1147 1.5 43C1.5 65.8853 20.1147 84.5 43 84.5C65.8853 84.5 84.5 65.8853 84.5 43C84.5 20.1147 65.8853 1.5 43 1.5Z" fill="#E8AC37" stroke="white" stroke-width="3"/>
<path id="Vector_2" d="M63.2769 34.5234L41.61 56.1897C40.96 56.8397 40.1067 57.1669 39.2534 57.1669C38.4001 57.1669 37.5469 56.8397 36.8969 56.1897L26.0637 45.3566C24.76 44.0535 24.76 41.9465 26.0637 40.6434C27.3668 39.3397 29.4731 39.3397 30.7769 40.6434L39.2534 49.12L58.5637 29.8103C59.8668 28.5066 61.9731 28.5066 63.2769 29.8103C64.58 31.1134 64.58 33.2197 63.2769 34.5234Z" fill="#FAFAFA"/>
</g>
</svg>
