<svg width="40" height="36" viewBox="0 0 40 36" fill="none" xmlns="http://www.w3.org/2000/svg">
<g clip-path="url(#clip0_1_82)" filter="url(#filter0_d_1_82)">
<path fill-rule="evenodd" clip-rule="evenodd" d="M26.6353 11.6449H13.3009C12.7751 11.6449 12.3484 11.2622 12.3484 10.7887C12.3484 10.316 12.7751 9.93239 13.3009 9.93239H26.6353C27.1611 9.93239 27.5878 10.316 27.5878 10.7887C27.5878 11.2622 27.1611 11.6449 26.6353 11.6449ZM24.7304 16.7826H15.2058C14.68 16.7826 14.2533 16.3998 14.2533 15.9263C14.2533 15.4528 14.68 15.07 15.2058 15.07H24.7304C25.2561 15.07 25.6828 15.4528 25.6828 15.9263C25.6828 16.3998 25.2561 16.7826 24.7304 16.7826ZM19.9681 0.513351C11.5521 0.513351 4.72872 5.88134 4.72872 12.5012C4.72872 16.2851 6.96224 19.6545 10.4435 21.8509V27.9142L17.1193 24.2724C18.0432 24.4094 18.9937 24.4891 19.9681 24.4891C28.384 24.4891 35.2074 19.1219 35.2074 12.5012C35.2074 5.88134 28.384 0.513351 19.9681 0.513351Z" fill="#52AEB0"/>
</g>
<defs>
<filter id="filter0_d_1_82" x="0.728722" y="0.513351" width="38.4787" height="35.4008" filterUnits="userSpaceOnUse" color-interpolation-filters="sRGB">
<feFlood flood-opacity="0" result="BackgroundImageFix"/>
<feColorMatrix in="SourceAlpha" type="matrix" values="0 0 0 0 0 0 0 0 0 0 0 0 0 0 0 0 0 0 127 0" result="hardAlpha"/>
<feOffset dy="4"/>
<feGaussianBlur stdDeviation="2"/>
<feComposite in2="hardAlpha" operator="out"/>
<feColorMatrix type="matrix" values="0 0 0 0 0 0 0 0 0 0 0 0 0 0 0 0 0 0 0.25 0"/>
<feBlend mode="normal" in2="BackgroundImageFix" result="effect1_dropShadow_1_82"/>
<feBlend mode="normal" in="SourceGraphic" in2="effect1_dropShadow_1_82" result="shape"/>
</filter>
<clipPath id="clip0_1_82">
<rect width="30.4787" height="27.4008" fill="white" transform="translate(4.72872 0.513351)"/>
</clipPath>
</defs>
</svg>
