<svg width="31" height="28" viewBox="0 0 31 28" fill="none" xmlns="http://www.w3.org/2000/svg">
<path d="M5.26595 11.1675C7.01938 11.1675 8.44081 12.4454 8.44081 14.0217C8.44081 15.5981 7.01938 16.876 5.26595 16.876C3.51252 16.876 2.09108 15.5981 2.09108 14.0217C2.09108 12.4454 3.51252 11.1675 5.26595 11.1675Z" fill="#52AEB0"/>
<path d="M15.4255 11.1675C17.1789 11.1675 18.6004 12.4454 18.6004 14.0217C18.6004 15.5981 17.1789 16.876 15.4255 16.876C13.6721 16.876 12.2507 15.5981 12.2507 14.0217C12.2507 12.4454 13.6721 11.1675 15.4255 11.1675Z" fill="#52AEB0"/>
<path d="M28.76 14.0217C28.76 12.4454 27.3385 11.1675 25.5851 11.1675C23.8317 11.1675 22.4102 12.4454 22.4102 14.0217C22.4102 15.5981 23.8317 16.876 25.5851 16.876C27.3385 16.876 28.76 15.5981 28.76 14.0217Z" fill="#52AEB0"/>
</svg>
