<svg width="33" height="30" viewBox="0 0 33 30" fill="none" xmlns="http://www.w3.org/2000/svg">
<g id="Group 112">
<g id="Category">
<path id="Fill 1" opacity="0.4" d="M23.186 0H28.5662C30.7943 0 32.5998 1.71878 32.5998 3.83996V8.96181C32.5998 11.083 30.7943 12.8018 28.5662 12.8018H23.186C20.9578 12.8018 19.1523 11.083 19.1523 8.96181V3.83996C19.1523 1.71878 20.9578 0 23.186 0Z" fill="#A0A2B3"/>
<path id="Combined Shape" fill-rule="evenodd" clip-rule="evenodd" d="M4.85394 0H10.2341C12.4623 0 14.2678 1.71878 14.2678 3.83996V8.96181C14.2678 11.083 12.4623 12.8018 10.2341 12.8018H4.85394C2.62579 12.8018 0.820312 11.083 0.820312 8.96181V3.83996C0.820312 1.71878 2.62579 0 4.85394 0ZM4.85394 17.1982H10.2341C12.4623 17.1982 14.2678 18.917 14.2678 21.0382V26.1601C14.2678 28.2798 12.4623 30 10.2341 30H4.85394C2.62579 30 0.820312 28.2798 0.820312 26.1601V21.0382C0.820312 18.917 2.62579 17.1982 4.85394 17.1982ZM28.568 17.1982H23.1878C20.9597 17.1982 19.1542 18.917 19.1542 21.0382V26.1601C19.1542 28.2798 20.9597 30 23.1878 30H28.568C30.7962 30 32.6017 28.2798 32.6017 26.1601V21.0382C32.6017 18.917 30.7962 17.1982 28.568 17.1982Z" fill="#52AEB0"/>
</g>
</g>
</svg>
