<svg width="40" height="40" viewBox="0 0 40 40" fill="none" xmlns="http://www.w3.org/2000/svg">
<g id="Group">
<path id="Vector" d="M15.0211 5.94249C7.23974 8.78488 3.23592 17.3973 6.07836 25.1788C8.92043 32.9593 17.533 36.9638 25.3143 34.1214C33.0957 31.279 37.0993 22.6661 34.2572 14.8856C31.4141 7.10383 22.8014 3.10047 15.0211 5.94249ZM24.9347 33.0807C17.8563 35.6663 9.99283 32.0108 7.40736 24.9328C4.82173 17.8544 8.4778 9.99161 15.5562 7.406C22.6345 4.82042 30.4957 8.47668 33.0811 15.5547C35.6666 22.6327 32.013 30.4951 24.9347 33.0807Z" fill="#E8AC37"/>
<path id="Vector_2" d="M16.2412 9.28461C10.57 11.3562 7.47372 17.3966 8.93968 23.1264L19.4001 19.3054L18.3007 18.7944C17.7589 18.5423 17.5244 17.9001 17.7762 17.3584C18.028 16.8167 18.6706 16.582 19.2122 16.8339L22.6779 18.4446C22.6779 18.4446 22.6785 18.4462 22.6795 18.4459L23.6585 18.9009L23.2034 19.8802L23.2026 19.881L21.6986 23.1163C21.5726 23.3872 21.35 23.5811 21.0895 23.6763C20.8304 23.7709 20.5339 23.7667 20.2627 23.6408C19.721 23.3886 19.4865 22.7465 19.7382 22.205L20.142 21.3364L9.67334 25.1604C12.1966 30.595 18.519 33.2949 24.2474 31.2024C30.2893 28.9954 33.4094 22.2839 31.2024 16.2418C28.9953 10.1993 22.2832 7.07759 16.2412 9.28461Z" fill="#E8AC37"/>
</g>
</svg>
