<svg width="25" height="25" viewBox="0 0 25 25" fill="none" xmlns="http://www.w3.org/2000/svg">
<g clip-path="url(#clip0_11_188)">
<path d="M2.87265 25.0003L3.56406 24.8495C3.77968 24.805 3.99531 24.7612 4.21093 24.719C4.53984 24.6542 4.87421 24.5886 5.2039 24.5284C5.45624 24.4839 5.70468 24.4433 5.95703 24.394L6.01328 24.3776C6.27343 24.3331 6.53124 24.2839 6.7914 24.2558L8.05624 24.0683V0.000289917H8.01171C7.35624 0.00419617 6.70624 0.0166962 6.05156 0.0370087C5.33046 0.0581024 4.59843 0.0987274 3.8789 0.147165C3.56953 0.166696 3.25624 0.196384 2.94218 0.219821H2.89765V24.9917L2.87265 25.0003ZM9.28124 0.0166962V23.9136C10.1805 23.8073 11.0758 23.7222 11.9711 23.6573C14.1805 23.4909 16.3984 23.4378 18.6117 23.4987C19.7836 23.5354 20.9555 23.6042 22.1234 23.7019V1.5667C21.0773 1.32607 20.0289 1.11435 18.9703 0.932321C16.9195 0.578415 14.8523 0.329196 12.7773 0.170602C11.6172 0.0893524 10.4492 0.0323212 9.28593 0.0166962H9.28124ZM20.4961 15.4292L20.4469 15.4261L19.8601 15.3604C18.4039 15.2104 16.9391 15.1081 15.4781 15.0597C14.0133 15.0104 12.5492 15.0276 11.0805 15.0761H11.0359C10.9867 15.0761 10.9422 15.0761 10.893 15.0597C10.7867 15.0276 10.6898 14.9823 10.6156 14.9058C10.4812 14.7628 10.4211 14.5753 10.4531 14.3878C10.4617 14.3229 10.4812 14.2784 10.5102 14.2136C10.5383 14.169 10.575 14.1073 10.6156 14.0753C10.6602 14.0308 10.7094 13.9979 10.7664 13.9651C10.8312 13.937 10.8922 13.9206 10.9539 13.905H11.0469C11.2508 13.905 11.4539 13.8886 11.6414 13.8886C13.0937 13.8565 14.5297 13.8565 15.9828 13.9167C17.4836 13.9823 18.9695 14.0917 20.4508 14.2628L20.6094 14.2792C20.6539 14.2956 20.6992 14.2956 20.7476 14.3073C20.857 14.3565 20.9508 14.4175 21.0164 14.4987C21.0609 14.5433 21.0891 14.605 21.1219 14.6698C21.1555 14.7315 21.1711 14.7917 21.1711 14.8573C21.1875 15.0284 21.1219 15.1987 21 15.3253C20.9508 15.3745 20.9023 15.4026 20.857 15.4347C20.8094 15.4683 20.7477 15.4792 20.6859 15.4964C20.6539 15.5128 20.6367 15.5128 20.593 15.5128H20.5437L20.4961 15.4292ZM20.532 12.6065C20.4828 12.6065 20.4828 12.6065 20.4344 12.5979L19.8562 12.5237C18.4039 12.337 16.9398 12.2112 15.4867 12.1495C14.0344 12.0722 12.5648 12.0558 11.0961 12.0878L11.0469 12.0722C11.0023 12.0558 10.9539 12.0558 10.9094 12.0401C10.8156 12.0112 10.7055 11.9464 10.6445 11.869C10.6125 11.8198 10.5633 11.7589 10.5508 11.7136C10.4695 11.5386 10.4695 11.3394 10.5633 11.169C10.5953 11.1034 10.6281 11.0589 10.6727 11.0097C10.7172 10.9651 10.7664 10.9159 10.8281 10.9042C10.893 10.8722 10.9539 10.8386 11.0148 10.8386L11.1086 10.8229L11.7187 10.8065C13.175 10.7901 14.607 10.8229 16.0437 10.9003C17.5461 10.9776 19.0312 11.1198 20.5117 11.3065L20.6711 11.3229L20.7648 11.3394C20.8742 11.3714 20.968 11.4167 21.0453 11.5104C21.1711 11.6362 21.2328 11.8073 21.2164 11.9784C21.2164 12.0433 21.2008 12.1042 21.1719 12.1495C21.1398 12.2151 21.107 12.2597 21.0781 12.3081C21.0461 12.3526 21.0008 12.3862 20.9367 12.4354C20.8922 12.4636 20.8266 12.4792 20.7656 12.4956L20.6719 12.512H20.6273L20.532 12.6065ZM20.532 9.78232C20.4828 9.78232 20.4828 9.78232 20.4344 9.77373L19.8562 9.69248C18.4039 9.49248 16.9508 9.34248 15.4867 9.24482C14.0344 9.15107 12.5648 9.10654 11.0961 9.11045H11.0469L10.9539 9.09404C10.8922 9.07842 10.8437 9.05732 10.7828 9.02529C10.6273 8.92763 10.518 8.76045 10.4851 8.56982C10.4851 8.5042 10.4852 8.44248 10.5016 8.38232C10.518 8.3167 10.5336 8.26045 10.5633 8.20341C10.5953 8.14638 10.6445 8.09717 10.6891 8.05263C10.7664 7.97529 10.8758 7.92216 10.9859 7.89873C11.0352 7.88623 11.0797 7.88232 11.1289 7.88232H11.7227C13.2195 7.89091 14.7219 7.94795 16.2031 8.06123C17.6555 8.17138 19.0914 8.32998 20.532 8.53701L20.6859 8.5581C20.7352 8.5667 20.7516 8.5667 20.7797 8.57763C20.8414 8.59873 20.9055 8.62685 20.9508 8.66279C21.0164 8.69638 21.0609 8.74092 21.0937 8.79013C21.1258 8.83779 21.1555 8.8956 21.1875 8.95654C21.2523 9.11904 21.232 9.30263 21.1555 9.45263C21.1266 9.50966 21.0937 9.56279 21.0453 9.6081C20.968 9.68545 20.8742 9.73857 20.7648 9.76201C20.7359 9.77451 20.7203 9.77451 20.6711 9.77841L20.6266 9.78232H20.532ZM20.532 6.95888C20.4828 6.95888 20.4828 6.95888 20.4344 6.95029L19.8562 6.85654C18.4039 6.61982 16.9508 6.44951 15.4867 6.34013C14.0344 6.21435 12.5648 6.15263 11.0961 6.1206H11.0469L10.9375 6.1081C10.8758 6.09248 10.8195 6.05888 10.7664 6.03076C10.7094 5.99873 10.6641 5.94951 10.6195 5.90498C10.5828 5.85576 10.5508 5.79482 10.5227 5.75107C10.5016 5.68545 10.4851 5.62373 10.4781 5.55967C10.4617 5.37217 10.5305 5.17295 10.6648 5.04716C10.7422 4.96982 10.8484 4.9167 10.9586 4.88779C11.0023 4.87607 11.0516 4.87607 11.0961 4.87607C11.2961 4.87607 11.4906 4.87998 11.6906 4.88466C13.1875 4.9167 14.6812 5.00263 16.1742 5.14091C17.6187 5.26279 19.0594 5.44951 20.4922 5.68545L20.6352 5.70185C20.6758 5.70185 20.6875 5.70185 20.7281 5.71357C20.7937 5.73467 20.843 5.76279 20.8992 5.79482C20.9484 5.82373 20.993 5.87295 21.0305 5.91748C21.1234 6.05888 21.168 6.22998 21.1398 6.40185C21.1234 6.4667 21.1078 6.51123 21.0742 6.57607C21.0422 6.6206 20.9969 6.68232 20.9484 6.71435C20.8711 6.79248 20.7773 6.84013 20.668 6.87373H20.525L20.532 6.95888ZM4.20703 6.42529C4.11328 6.42529 4.01953 6.4042 3.92656 6.35967C3.72265 6.26279 3.59609 6.0542 3.58046 5.83545C3.58046 5.77373 3.59609 5.7167 3.61249 5.66435C3.62812 5.59013 3.66171 5.52607 3.70624 5.46435C3.7539 5.3956 3.81562 5.33857 3.87734 5.29795C3.95859 5.24482 4.05234 5.2167 4.12968 5.20029L4.62968 5.15576C5.31406 5.0956 5.98906 5.04638 6.66093 5.00576H6.72109C6.83124 5.00966 6.92421 5.02998 7.00234 5.07841C7.20546 5.18466 7.33124 5.39638 7.33124 5.61982C7.33124 5.67607 7.31484 5.7331 7.29921 5.78623C7.28281 5.85498 7.25468 5.92451 7.20546 5.98076C7.16093 6.06201 7.09531 6.10654 7.03437 6.15576C6.95702 6.20029 6.87577 6.2331 6.78202 6.24951C6.67577 6.26591 6.5664 6.26591 6.45624 6.27763C6.31328 6.29404 6.15937 6.29404 6.00078 6.31123L4.78437 6.4042L4.48749 6.43779C4.42578 6.45341 4.36171 6.45342 4.28359 6.45342L4.20703 6.42529ZM20.5156 4.13466L20.4187 4.12216L19.8445 4.01982C18.3875 3.77607 16.9187 3.57685 15.4539 3.42998C14.0008 3.28701 12.532 3.19795 11.0633 3.14873H11.0141L10.9203 3.1292C10.8601 3.11279 10.8148 3.09248 10.7492 3.05654C10.7047 3.02295 10.6555 2.98232 10.6117 2.9292C10.4844 2.78779 10.4367 2.58779 10.4844 2.40498C10.5008 2.33935 10.5289 2.2792 10.5625 2.21748C10.5945 2.15185 10.6398 2.10732 10.6883 2.05888C10.7656 1.98076 10.875 1.93154 10.9852 1.90342C11.0297 1.88701 11.0789 1.88701 11.1234 1.88701L11.7336 1.90342C13.1859 1.96513 14.6219 2.05888 16.0586 2.2167C17.5594 2.3706 19.0406 2.59091 20.5266 2.83935L20.6805 2.85498C20.7297 2.85498 20.7461 2.85498 20.7742 2.87138C20.8398 2.88701 20.9 2.9206 20.9492 2.94873C21.0875 3.05888 21.1812 3.21748 21.1984 3.38857C21.2141 3.44873 21.1984 3.51045 21.182 3.57607C21.182 3.63623 21.1539 3.70185 21.1203 3.74716C21.0883 3.79638 21.0555 3.84092 21.0109 3.88857C20.9336 3.9667 20.8234 4.01123 20.7141 4.02685L20.6242 4.04326H20.575L20.5156 4.13466ZM4.19062 3.33232C4.10234 3.33232 4.01249 3.31279 3.93046 3.27607C3.85781 3.23857 3.78906 3.18935 3.73593 3.1331C3.68671 3.07607 3.64609 3.01513 3.61796 2.9417C3.59687 2.89248 3.58437 2.83623 3.57734 2.7792C3.55624 2.55498 3.65859 2.33545 3.84531 2.20966C3.92734 2.15654 4.0164 2.11982 4.11406 2.10732C4.28046 2.0956 4.44452 2.0956 4.60702 2.0792C5.28593 2.02998 5.96249 2.00185 6.63749 1.96982H6.69062C6.78437 1.98545 6.87812 2.00185 6.95546 2.04716C7.14218 2.15654 7.26874 2.37607 7.26874 2.5917C7.26874 2.65732 7.25234 2.71748 7.23515 2.7667C7.20312 2.84404 7.17499 2.90498 7.12968 2.9706C7.08046 3.03076 7.01484 3.09248 6.93827 3.12451C6.86093 3.17373 6.76718 3.20185 6.67343 3.20185C6.56406 3.21826 6.4539 3.21826 6.32734 3.21826L5.85937 3.25029C5.44062 3.27841 5.03359 3.29482 4.62578 3.32763L4.31328 3.34404C4.23515 3.36045 4.17499 3.36045 4.10937 3.36045L4.19062 3.33232Z" fill="#52AEB0"/>
</g>
<defs>
<clipPath id="clip0_11_188">
<rect width="25" height="25" fill="white" transform="translate(0 0.000289917)"/>
</clipPath>
</defs>
</svg>
