<svg width="30" height="30" viewBox="0 0 30 30" fill="none" xmlns="http://www.w3.org/2000/svg">
<g id="home-icon-silhouette_svgrepo.com" clip-path="url(#clip0_1_11131)">
<g id="Group">
<g id="Group_2">
<g id="Group_3">
<path id="Vector" d="M28.8087 14.0907L24.4018 9.37606V3.92985C24.4018 2.9451 23.6559 2.14704 22.734 2.14704C21.8143 2.14704 21.0684 2.9451 21.0684 3.92985V5.81L17.7871 2.29944C16.1648 0.564792 13.3441 0.567869 11.7255 2.30258L0.706604 14.0907C0.056132 14.788 0.056132 15.9162 0.706604 16.6124C1.35737 17.3095 2.41402 17.3095 3.06455 16.6124L14.0824 4.82399C14.4414 4.44201 15.074 4.44201 15.431 4.82286L26.4508 16.6124C26.7776 16.961 27.2036 17.1344 27.6295 17.1344C28.0563 17.1344 28.483 16.9608 28.8087 16.6124C29.4594 15.9163 29.4594 14.788 28.8087 14.0907Z" fill="#52AEB0"/>
<path id="Vector_2" d="M15.3358 8.20838C15.0157 7.86609 14.4973 7.86609 14.1781 8.20838L4.48587 18.5744C4.33285 18.738 4.24609 18.9615 4.24609 19.1946V26.7552C4.24609 28.5293 5.59071 29.9678 7.249 29.9678H12.0476V22.0173H17.4653V29.9678H22.264C23.9222 29.9678 25.2668 28.5293 25.2668 26.7553V19.1946C25.2668 18.9615 25.1808 18.738 25.027 18.5744L15.3358 8.20838Z" fill="#52AEB0"/>
</g>
</g>
</g>
</g>
<defs>
<clipPath id="clip0_1_11131">
<rect width="29.078" height="30" fill="white" transform="translate(0.21875)"/>
</clipPath>
</defs>
</svg>
