<svg width="110" height="110" viewBox="0 0 110 110" fill="none" xmlns="http://www.w3.org/2000/svg">
<g id="Icon">
<rect id="BG" y="10" width="100" height="100" rx="25" fill="#F6F6F6"/>
<path id="Vector" d="M56.9099 61.818L63.2736 61.818C64.0312 61.818 64.6753 62.0831 65.2057 62.6134C65.7358 63.1438 66.0011 63.7877 66.0011 64.5455L66.0011 65.4542C66.0011 67.4619 65.2908 69.1758 63.8701 70.5964C62.4496 72.0165 60.7354 72.7269 58.7279 72.7269L56.9099 72.7269C56.4175 72.7269 55.9916 72.9069 55.6316 73.2666C55.2717 73.6265 55.0918 74.0525 55.0918 74.545L55.0918 78.1816C55.0918 78.674 55.2718 79.1004 55.6316 79.4603C55.9915 79.8197 56.4174 80 56.9099 80L58.7279 80C60.6978 80 62.5772 79.6161 64.3672 78.8494C66.157 78.0822 67.7051 77.0452 69.012 75.7382C70.3189 74.4318 71.3557 72.8836 72.1228 71.0936C72.8898 69.3038 73.2734 67.424 73.2734 65.4543L73.2734 45.4548C73.2734 43.9388 72.7434 42.6516 71.6828 41.5906C70.622 40.5302 69.3339 40 67.8188 40L56.9092 40C55.3942 40 54.1064 40.5302 53.0456 41.5906C51.9852 42.6516 51.4548 43.9388 51.4548 45.4547L51.4548 56.3633C51.4548 57.879 51.9852 59.1662 53.0463 60.2273C54.1066 61.2876 55.3949 61.818 56.9099 61.818Z" fill="#E8AC37"/>
<path id="Vector_2" d="M27.5907 60.2273C28.6511 61.2876 29.939 61.818 31.4543 61.818L37.8179 61.818C38.5752 61.818 39.2199 62.0831 39.7493 62.6134C40.2799 63.1438 40.5448 63.7877 40.5448 64.5455L40.5448 65.4542C40.5448 67.4619 39.8344 69.1758 38.4145 70.5964C36.9944 72.0165 35.2804 72.7269 33.2719 72.7269L31.4542 72.7269C30.9618 72.7269 30.5355 72.9069 30.1758 73.2666C29.8163 73.6265 29.6357 74.0525 29.6357 74.545L29.6357 78.1816C29.6357 78.674 29.8162 79.1004 30.1758 79.4603C30.5354 79.8197 30.9617 80 31.4542 80L33.2719 80C35.2429 80 37.1218 79.6161 38.9123 78.8494C40.7018 78.0822 42.2494 77.0452 43.5564 75.7382C44.8634 74.4318 45.9006 72.8836 46.6674 71.0936C47.4343 69.3038 47.8184 67.424 47.8184 65.4543L47.8184 45.4548C47.8184 43.9388 47.2878 42.6516 46.2275 41.5906C45.1671 40.5302 43.8792 40 42.3639 40L31.4549 40C29.9396 40 28.6518 40.5302 27.5914 41.5906C26.5303 42.6516 26.0009 43.9388 26.0009 45.4547L26.0009 56.3633C26.0008 57.8791 26.5303 59.1662 27.5907 60.2273Z" fill="#E8AC37"/>
<g id="Check">
<path id="Vector_3" d="M92 1.5C82.9002 1.5 75.5 8.90024 75.5 18C75.5 27.0998 82.9002 34.5 92 34.5C101.1 34.5 108.5 27.0998 108.5 18C108.5 8.90024 101.1 1.5 92 1.5Z" fill="#52AEB0" stroke="white" stroke-width="3"/>
<path id="Vector_4" d="M99.6028 14.8214L91.4778 22.9462C91.234 23.19 90.914 23.3126 90.5941 23.3126C90.2741 23.3126 89.9541 23.19 89.7103 22.9462L85.6479 18.8838C85.159 18.3951 85.159 17.605 85.6479 17.1163C86.1366 16.6275 86.9265 16.6275 87.4153 17.1163L90.5941 20.2951L97.8354 13.0539C98.3241 12.565 99.114 12.565 99.6028 13.0539C100.092 13.5426 100.092 14.3325 99.6028 14.8214Z" fill="#FAFAFA"/>
</g>
</g>
</svg>
