<svg width="32" height="28" viewBox="0 0 32 28" fill="none" xmlns="http://www.w3.org/2000/svg">
<rect x="1.45744" y="1.01335" width="29.4787" height="26.4008" stroke="black"/>
<path d="M27.714 19.0831L28.6099 14.4252C28.8337 13.2618 27.8385 12.1977 26.5267 12.1977H19.947C19.2949 12.1977 18.7983 11.6715 18.9038 11.0923L19.7454 6.47465C19.8822 5.72448 19.8431 4.95685 19.6308 4.22105C19.4549 3.61152 18.9318 3.12208 18.2438 2.9234L18.0597 2.87022C17.6439 2.75015 17.1902 2.77809 16.7981 2.94791C16.3667 3.13482 16.051 3.47576 15.9341 3.88125L15.33 5.97495C15.1377 6.64113 14.8578 7.28415 14.4967 7.89173C13.9693 8.77946 13.1537 9.48993 12.306 10.1467L10.4789 11.5622C9.96371 11.9613 9.69316 12.559 9.75178 13.1684L10.7832 23.8921C10.8778 24.8757 11.7925 25.6308 12.8895 25.6308H18.793C23.214 25.6308 26.9871 22.8615 27.714 19.0831Z" fill="#52AEB0"/>
<path opacity="0.5" fill-rule="evenodd" clip-rule="evenodd" d="M4.72623 11.3425C5.23581 11.3227 5.67226 11.6673 5.7162 12.1242L6.95008 24.9529C7.02934 25.777 6.30733 26.4873 5.38538 26.4873C4.51697 26.4873 3.81483 25.8539 3.81483 25.0747V12.198C3.81483 11.7394 4.21664 11.3623 4.72623 11.3425Z" fill="#52AEB0"/>
</svg>
