<svg width="30" height="24" viewBox="0 0 30 24" fill="none" xmlns="http://www.w3.org/2000/svg">
<path d="M0.625 19.175H4.2125L4.4375 19.2875C7.43773 20.7866 10.7461 21.5655 14.1 21.5625C14.6764 21.5619 15.2331 21.3527 15.6674 20.9736C16.1016 20.5945 16.384 20.0711 16.4625 19.5L17.3625 13.25H25.7375C26.0693 13.2479 26.397 13.177 26.7 13.0418C27.003 12.9066 27.2746 12.71 27.4978 12.4645C27.721 12.219 27.8908 11.9299 27.9966 11.6155C28.1024 11.301 28.1419 10.968 28.1125 10.6375C28.0332 10.0323 27.7351 9.477 27.2746 9.07634C26.8141 8.67569 26.2229 8.45736 25.6125 8.46254H12.5875L14.2375 6.81254C14.4775 6.57952 14.6683 6.30069 14.7987 5.99258C14.929 5.68446 14.9961 5.35333 14.9961 5.01879C14.9961 4.68426 14.929 4.35312 14.7987 4.04501C14.6683 3.73689 14.4775 3.45807 14.2375 3.22504C13.7798 2.75084 13.1583 2.46917 12.5 2.43754C12.168 2.43562 11.839 2.49985 11.5321 2.62647C11.2252 2.7531 10.9466 2.93958 10.7125 3.17504L4.2125 9.61254H0.625" stroke="#52AEB0" stroke-width="4.775" stroke-miterlimit="10"/>
</svg>
