<svg width="100" height="100" viewBox="0 0 100 100" fill="none" xmlns="http://www.w3.org/2000/svg">
<g id="Group">
<circle id="Ellipse 56" cx="50" cy="50" r="50" fill="#52AEB0" fill-opacity="0.1"/>
<g id="Group 34021">
<path id="Vector" d="M46.6841 72.4878C46.0322 69.8483 45.6961 67.1407 45.6826 64.4219L45.6406 55.9912C45.6374 55.3308 45.4183 54.6894 45.0166 54.1653L38.8822 46.1611C37.891 44.8676 36.0442 44.5168 34.7057 45.446C33.2767 46.4385 32.9805 48.4102 34.0264 49.7751L37.6998 54.568C38.2998 55.3508 38.5338 56.3539 38.3426 57.3213C38.1699 58.1947 37.1121 58.5476 36.4495 57.9532L29.4583 51.6817C28.0519 50.4199 27.2933 48.5886 27.3951 46.7018L28.1328 33.0545C28.2229 31.3856 26.943 29.9594 25.2741 29.8692C23.6046 29.7796 22.1792 31.0589 22.0888 32.7278L21.0044 52.7933C20.9683 53.4654 21.1569 54.1302 21.5408 54.683L31.6267 69.2051C32.9204 71.0677 33.8622 73.1512 34.4057 75.3527L34.9811 77.6828C35.3172 79.0436 36.5383 80 37.9401 80H44.577C45.2837 80 45.983 79.7845 46.5364 79.3449C47.4921 78.5852 47.8878 77.362 47.6061 76.2217L46.6841 72.4878Z" fill="#E8AC37"/>
<path id="Vector_2" d="M52.476 72.4877C53.1279 69.8482 53.464 67.1406 53.4775 64.4218L53.5195 55.9911C53.5227 55.3307 53.7418 54.6893 54.1437 54.1652L60.278 46.161C61.2693 44.8675 63.1161 44.5167 64.4548 45.446C65.8838 46.4384 66.18 48.4101 65.1341 49.775L61.4607 54.5679C60.8607 55.3507 60.6267 56.3538 60.8181 57.3212C60.9908 58.1946 62.0486 58.5475 62.7112 57.9531L69.7018 51.6812C71.1082 50.4194 71.8668 48.5881 71.7649 46.7013L71.0273 33.054C70.9371 31.3851 72.2171 29.9589 73.886 29.8687C75.5555 29.7791 76.9809 31.0584 77.0713 32.7273L78.1557 52.7929C78.1918 53.4649 78.0032 54.1297 77.6193 54.6825L67.5333 69.2046C66.2397 71.0672 65.2979 73.1507 64.7542 75.3522L64.1788 77.6823C63.8426 79.0431 62.6216 79.9995 61.2198 79.9995H54.5829C53.8762 79.9995 53.1769 79.784 52.6235 79.3444C51.6678 78.5848 51.2721 77.3615 51.5538 76.2212L52.476 72.4877Z" fill="#E8AC37"/>
<path id="Vector_3" d="M55.0604 42.0426L60.7503 30.0108C61.4647 28.4998 60.8191 26.6956 59.3083 25.9809L47.2765 20.2913C45.7653 19.5766 43.9613 20.2223 43.2466 21.7332L37.5568 33.765C36.8423 35.276 37.488 37.0803 38.9989 37.7949L51.0307 43.4848C51.4488 43.6825 51.889 43.7759 52.3226 43.7759C53.4562 43.7759 54.5433 43.1355 55.0604 42.0426Z" fill="#52AEB0"/>
</g>
</g>
</svg>
