<svg width="32" height="33" viewBox="0 0 32 33" fill="none" xmlns="http://www.w3.org/2000/svg">
<g id="microsoft-edge_svgrepo.com" clip-path="url(#clip0_55_402)">
<g id="Group">
<path id="Vector" d="M23.4214 25.7204C23.0497 25.7754 22.6754 25.8087 22.3016 25.8111C21.1028 25.8324 19.9172 25.6409 18.7848 25.2403C14.4301 23.6997 11.6956 19.3657 13.057 15.5174C13.4375 14.4711 14.3595 13.7096 15.456 13.5382C11.457 12.3099 8.99168 16.0577 8.1416 18.4606C5.73467 25.2642 11.76 28.1727 13.1134 28.6515C13.8407 28.9088 15.0112 29.0846 15.7489 29.1074L15.8816 29.1129C18.732 29.1372 21.4922 28.1869 23.7329 26.421C23.9052 26.2852 23.9282 26.0447 23.8015 25.8756C23.7079 25.7596 23.5638 25.6983 23.4214 25.7204Z" fill="url(#paint0_linear_55_402)"/>
<path id="Vector_2" opacity="0.35" d="M23.4214 25.7204C23.0497 25.7754 22.6754 25.8087 22.3016 25.8111C21.1028 25.8324 19.9172 25.6409 18.7848 25.2403C14.4301 23.6997 11.6956 19.3657 13.057 15.5174C13.4375 14.4711 14.3595 13.7096 15.456 13.5382C11.457 12.3099 8.99168 16.0577 8.1416 18.4606C5.73467 25.2642 11.76 28.1727 13.1134 28.6515C13.8407 28.9088 15.0112 29.0846 15.7489 29.1074L15.8816 29.1129C18.732 29.1372 21.4922 28.1869 23.7329 26.421C23.9052 26.2852 23.9282 26.0447 23.8015 25.8756C23.7079 25.7596 23.5638 25.6983 23.4214 25.7204Z" fill="url(#paint1_radial_55_402)"/>
<path id="Vector_3" d="M10.228 26.3257C9.58774 25.5294 9.1166 24.6066 8.83185 23.6253C7.58307 19.4544 9.95517 15.0625 14.1261 13.8137C14.5639 13.6889 15.0044 13.5857 15.4562 13.5384C15.7904 13.5013 16.3631 13.4345 17.0135 13.675C17.9401 14.0131 18.6583 14.7645 18.9561 15.7089C19.1485 16.3363 19.1485 17.0096 18.9363 17.6389C18.9428 17.6205 23.7844 11.1085 14.1637 7.70495C10.122 6.27512 5.44031 8.93845 4.2515 12.2988C3.60448 14.0691 3.36581 15.9736 3.54156 17.8485C4.16742 24.1609 9.41616 29.0011 15.755 29.1201C13.5975 29.0405 11.5745 28.0244 10.228 26.3257Z" fill="url(#paint2_linear_55_402)"/>
<path id="Vector_4" opacity="0.41" d="M10.228 26.3257C9.58774 25.5294 9.1166 24.6066 8.83185 23.6253C7.58307 19.4544 9.95517 15.0625 14.1261 13.8137C14.5639 13.6889 15.0044 13.5857 15.4562 13.5384C15.7904 13.5013 16.3631 13.4345 17.0135 13.675C17.9401 14.0131 18.6583 14.7645 18.9561 15.7089C19.1485 16.3363 19.1485 17.0096 18.9363 17.6389C18.9428 17.6205 23.7844 11.1085 14.1637 7.70495C10.122 6.27512 5.44031 8.93845 4.2515 12.2988C3.60448 14.0691 3.36581 15.9736 3.54156 17.8485C4.16742 24.1609 9.41616 29.0011 15.755 29.1201C13.5975 29.0405 11.5745 28.0244 10.228 26.3257Z" fill="url(#paint3_radial_55_402)"/>
<path id="Vector_5" d="M17.5312 19.3273C17.4249 19.3933 17.1459 19.45 17.0417 19.7446C16.957 19.984 17.0321 20.2695 17.2399 20.5606C18.2399 21.9502 20.7772 22.7132 20.7864 22.7164C21.7715 23.0649 22.8235 23.1367 23.8463 22.9392C25.9354 22.5388 27.658 21.0661 28.3681 19.0591C29.1252 17.0066 28.8464 15.3645 28.7576 14.6494C28.1574 10.1382 24.7193 6.44616 20.1437 4.82742C13.6991 2.54751 6.621 5.86506 4.24903 12.277C5.48387 8.93295 9.78664 7.39933 13.7638 8.80636C14.0861 8.92035 15.9176 9.59937 17.3016 11.1042C18.5222 12.4268 18.9784 13.6552 19.1862 14.7956C19.4085 15.9826 19.0733 17.2521 18.8974 17.7493C18.7248 18.2372 18.2157 18.8858 17.5312 19.3273Z" fill="url(#paint4_radial_55_402)"/>
<path id="Vector_6" d="M17.5312 19.3273C17.4249 19.3933 17.1459 19.45 17.0417 19.7446C16.957 19.984 17.0321 20.2695 17.2399 20.5606C18.2399 21.9502 20.7772 22.7132 20.7864 22.7164C21.7715 23.0649 22.8235 23.1367 23.8463 22.9392C25.9354 22.5388 27.658 21.0661 28.3681 19.0591C29.1252 17.0066 28.8464 15.3645 28.7576 14.6494C28.1574 10.1382 24.7193 6.44616 20.1437 4.82742C13.6991 2.54751 6.621 5.86506 4.24903 12.277C5.48387 8.93295 9.78664 7.39933 13.7638 8.80636C14.0861 8.92035 15.9176 9.59937 17.3016 11.1042C18.5222 12.4268 18.9784 13.6552 19.1862 14.7956C19.4085 15.9826 19.0733 17.2521 18.8974 17.7493C18.7248 18.2372 18.2157 18.8858 17.5312 19.3273Z" fill="url(#paint5_radial_55_402)"/>
</g>
</g>
<defs>
<linearGradient id="paint0_linear_55_402" x1="7.99803" y1="18.8677" x2="24.4115" y2="24.6743" gradientUnits="userSpaceOnUse">
<stop stop-color="#0C59A4"/>
<stop offset="1" stop-color="#114A8B"/>
</linearGradient>
<radialGradient id="paint1_radial_55_402" cx="0" cy="0" r="1" gradientUnits="userSpaceOnUse" gradientTransform="translate(17.0192 22.2058) rotate(19.4824) scale(9.31352 8.84687)">
<stop offset="0.72" stop-opacity="0"/>
<stop offset="0.95" stop-opacity="0.53"/>
<stop offset="1"/>
</radialGradient>
<linearGradient id="paint2_linear_55_402" x1="19.1753" y1="14.8175" x2="4.97052" y2="22.3586" gradientUnits="userSpaceOnUse">
<stop stop-color="#1B9DE2"/>
<stop offset="0.16" stop-color="#1595DF"/>
<stop offset="0.67" stop-color="#0680D7"/>
<stop offset="1" stop-color="#0078D4"/>
</linearGradient>
<radialGradient id="paint3_radial_55_402" cx="0" cy="0" r="1" gradientUnits="userSpaceOnUse" gradientTransform="translate(8.37793 21.28) rotate(-61.9002) scale(14.0037 11.3158)">
<stop offset="0.76" stop-opacity="0"/>
<stop offset="0.95" stop-opacity="0.5"/>
<stop offset="1"/>
</radialGradient>
<radialGradient id="paint4_radial_55_402" cx="0" cy="0" r="1" gradientUnits="userSpaceOnUse" gradientTransform="translate(9.19591 5.86364) rotate(111.773) scale(19.7804 42.1346)">
<stop stop-color="#35C1F1"/>
<stop offset="0.11" stop-color="#34C1ED"/>
<stop offset="0.23" stop-color="#2FC2DF"/>
<stop offset="0.31" stop-color="#2BC3D2"/>
<stop offset="0.67" stop-color="#36C752"/>
</radialGradient>
<radialGradient id="paint5_radial_55_402" cx="0" cy="0" r="1" gradientUnits="userSpaceOnUse" gradientTransform="translate(27.9394 15.6036) rotate(93.219) scale(9.50403 7.73017)">
<stop stop-color="#66EB6E"/>
<stop offset="1" stop-color="#66EB6E" stop-opacity="0"/>
</radialGradient>
<clipPath id="clip0_55_402">
<rect width="25" height="25" fill="white" transform="translate(8.35938 0.658447) rotate(19.4824)"/>
</clipPath>
</defs>
</svg>
