<svg width="26" height="27" viewBox="0 0 26 27" fill="none" xmlns="http://www.w3.org/2000/svg">
<path d="M8.51944 19.9437C9.22971 22.0635 10.2912 24.0899 11.6797 25.9766C8.76913 25.3629 6.34908 22.8684 5.03481 19.4184L8.51944 19.9437ZM11.6269 0.938941C8.79135 1.56285 6.43017 3.96874 5.10936 7.29941L8.52027 6.82769C9.22176 4.7507 10.2672 2.77391 11.6269 0.938941ZM12.6963 6.89076L12.7436 0.800522H12.734C11.2084 2.67035 10.0475 4.6945 9.27385 6.8368L12.6963 6.89076ZM5.32957 8.78194L4.69946 8.77406L4.07653 8.76272L4.02763 15.0883L1.50555 8.72443L0.0994006 8.70297L0.0304871 17.7044L0.657406 17.7168L1.28111 17.7246L1.33083 11.2358L3.92592 17.7652L5.26156 17.7866L5.32957 8.78194ZM11.3238 10.4717L11.3294 9.66914L11.3366 8.8721L6.61628 8.80119L6.54737 17.806L11.4144 17.8781L11.4208 17.0777L11.4264 16.2795L7.89978 16.2266L7.9174 13.8772L11.0528 13.9244L11.0585 13.1521L11.0641 12.3754L7.92862 12.3292L7.9439 10.4199L11.3238 10.4717ZM17.7229 15.506L16.8442 8.95637L15.418 8.93267L14.452 15.5105L13.4306 8.90453L12.0381 8.88203L13.7537 17.9138L14.3895 17.9228L15.0268 17.9342L16.0874 10.8578L17.0631 17.9635L17.7028 17.9758L18.3377 17.9848L20.1912 9.00697L18.8371 8.98667L17.7229 15.506ZM13.4323 0.811681H13.4226L13.3762 6.90084L16.801 6.95155C16.0587 4.78559 14.9299 2.72771 13.4323 0.811681ZM20.7468 7.01007C19.3214 3.66925 16.8892 1.35233 14.0541 0.882103C15.8702 2.85714 16.8843 4.86438 17.5553 6.96271L20.7468 7.01007ZM14.1024 26.0126C17.0114 25.4891 19.4546 23.085 20.8244 19.7102L17.3549 20.0776C16.6117 22.1749 15.5182 24.1675 14.1024 26.0126ZM16.5957 20.0664L13.2759 20.0157L13.231 25.8314C14.6917 24.0448 15.8212 22.1052 16.5957 20.0664ZM25.4367 13.7465C25.124 13.3581 24.5051 13.0092 23.5743 12.7063C22.933 12.4902 22.5137 12.3134 22.3181 12.1603C22.1184 12.0128 22.0183 11.8023 22.0207 11.5311C22.0223 11.1608 22.1209 10.8601 22.3157 10.6541C22.5073 10.4548 22.775 10.3524 23.1142 10.3591C23.507 10.3636 23.8245 10.4965 24.0674 10.7475C24.3087 11.0008 24.4394 11.3396 24.4587 11.7697L25.763 11.7922C25.7213 10.886 25.4768 10.17 25.0294 9.63189C24.5845 9.09378 24.0008 8.82026 23.2826 8.81011C22.5162 8.79776 21.9045 9.04653 21.45 9.54636C20.9962 10.0519 20.7661 10.7498 20.7597 11.6189C20.7541 12.3991 20.9192 12.9754 21.2551 13.3503C21.5958 13.7229 22.274 14.0786 23.2874 14.4107C23.839 14.5909 24.1974 14.7676 24.3657 14.9252C24.5357 15.0874 24.6206 15.3349 24.6182 15.6772C24.6158 16.0205 24.4932 16.284 24.2518 16.4754C24.0098 16.6645 23.677 16.7568 23.2481 16.75C22.8337 16.7433 22.509 16.6116 22.2797 16.3493C22.0473 16.0914 21.9286 15.7256 21.9174 15.2427L20.6275 15.2236C20.6507 16.1962 20.8905 16.9482 21.3426 17.4818C21.7956 18.0199 22.4281 18.2913 23.237 18.3025C24.0474 18.3138 24.688 18.0807 25.1658 17.5876C25.6452 17.0968 25.8858 16.4315 25.8921 15.5849C25.9018 14.7451 25.7477 14.1304 25.4367 13.7465ZM12.552 25.8157L12.5969 20.0068L9.27709 19.9561C10.0227 22.0162 11.1202 23.9885 12.552 25.8157Z" fill="#52AEB0"/>
</svg>
