<svg width="29" height="30" viewBox="0 0 29 30" fill="none" xmlns="http://www.w3.org/2000/svg">
<g id="Notification">
<path id="Path_425-2" d="M0.288116 17.8686V17.5619C0.345355 16.5796 0.684135 15.628 1.27084 14.8016C2.24914 13.7986 2.92168 12.5804 3.22161 11.2679C3.29495 10.2678 3.22161 9.24099 3.29495 8.22755C3.82298 3.36036 9.0886 0 14.1342 0H14.2809C19.4145 0 24.5481 3.36036 25.1055 8.22755C25.2082 9.22766 25.1055 10.2678 25.1935 11.2679C25.4861 12.5827 26.1596 13.8026 27.1443 14.8016C27.7565 15.6186 28.1069 16.5743 28.1563 17.5619V17.8686C28.1653 19.199 27.6443 20.4874 26.6896 21.4956C25.4647 22.6911 23.7997 23.4361 22.0106 23.5892C16.7863 24.2026 11.4968 24.2026 6.27245 23.5892C4.50417 23.4235 2.86229 22.6795 1.65219 21.4956C0.727373 20.4777 0.24241 19.1882 0.288116 17.8686Z" fill="#52AEB0"/>
<path id="Path_426" opacity="0.4" d="M16.1298 25.6429C15.0884 25.5762 14.2377 25.6429 13.387 25.6429C12.5433 25.6296 11.701 25.7102 10.8789 25.8829C10.1748 26.0296 9.41211 26.3763 9.41211 27.1097C9.48598 27.8185 9.90594 28.4598 10.5562 28.8566C11.8087 29.7319 13.3871 30.1289 14.9564 29.9634C16.4818 29.8605 17.876 29.141 18.7553 28.0032C19.2413 27.4267 19.1304 26.6026 18.5059 26.1496C17.7665 25.8189 16.9539 25.6456 16.1298 25.6429Z" fill="#A0A2B3"/>
</g>
</svg>
