<svg width="27" height="26" viewBox="0 0 27 26" fill="none" xmlns="http://www.w3.org/2000/svg">
<mask id="mask0_11_205" style="mask-type:luminance" maskUnits="userSpaceOnUse" x="0" y="0" width="27" height="26">
<path d="M26.2586 0.282784H0.396545V25.4949H26.2586V0.282784Z" fill="white"/>
</mask>
<g mask="url(#mask0_11_205)">
<path d="M3.01701 23.4253C2.92752 23.4356 2.8371 23.4356 2.74761 23.4253C2.4725 23.356 2.23661 23.1835 2.09131 22.9454C1.946 22.7074 1.90303 22.423 1.97175 22.1542L6.86399 2.9615C6.92299 2.72841 7.0621 2.52206 7.25816 2.3768C7.45423 2.23153 7.69542 2.15612 7.94157 2.16311H19.795C19.9542 2.16414 20.1111 2.19953 20.2546 2.26673C20.3981 2.33394 20.5245 2.43129 20.6248 2.5518C20.7263 2.67174 20.7993 2.81217 20.8385 2.96296C20.8776 3.11374 20.8819 3.27112 20.8511 3.42372L16.8424 22.5744C16.7867 22.853 16.6197 23.0986 16.3782 23.2572C16.1367 23.4158 15.8405 23.4744 15.5547 23.4201C15.2689 23.3657 15.017 23.203 14.8543 22.9675C14.6916 22.7321 14.6315 22.4433 14.6873 22.1647L18.3618 4.30614H8.77132L4.06226 22.6269C4.00451 22.8547 3.87021 23.057 3.68077 23.2017C3.49133 23.3464 3.25766 23.4251 3.01701 23.4253Z" fill="#52AEB0"/>
<path d="M3.99751 19.5908C3.71171 19.5908 3.43763 19.4801 3.23554 19.2831C3.03345 19.0861 2.91992 18.8189 2.91992 18.5403C2.91992 18.2617 3.03345 17.9945 3.23554 17.7975C3.43763 17.6005 3.71171 17.4898 3.99751 17.4898H16.5837C16.8695 17.4898 17.1436 17.6005 17.3457 17.7975C17.5478 17.9945 17.6613 18.2617 17.6613 18.5403C17.6613 18.8189 17.5478 19.0861 17.3457 19.2831C17.1436 19.4801 16.8695 19.5908 16.5837 19.5908H3.99751Z" fill="#52AEB0"/>
<path d="M23.6418 23.4249C23.3985 23.433 23.1596 23.3606 22.9639 23.2194C22.7682 23.0783 22.6273 22.8767 22.5642 22.6475L19.6116 12.1425C19.5742 12.0086 19.5643 11.8689 19.5826 11.7314C19.6008 11.5938 19.6469 11.4611 19.718 11.341C19.7891 11.2209 19.884 11.1157 19.997 11.0315C20.1101 10.9472 20.2391 10.8857 20.3767 10.8503C20.6525 10.7798 20.9456 10.8188 21.1921 10.9586C21.4385 11.0983 21.618 11.3276 21.6913 11.5962L24.6439 22.1013C24.7166 22.3687 24.6782 22.6532 24.537 22.8932C24.3957 23.1331 24.1631 23.3091 23.8896 23.3829C23.8094 23.4081 23.726 23.4222 23.6418 23.4249Z" fill="#52AEB0"/>
<path d="M11.8545 23.4253C11.6362 23.4239 11.4235 23.3578 11.2445 23.2359C11.0655 23.1139 10.9288 22.9419 10.8524 22.7425L9.37609 18.9081C9.31688 18.7773 9.2857 18.636 9.28446 18.493C9.28323 18.35 9.31196 18.2083 9.36889 18.0765C9.42583 17.9446 9.50978 17.8256 9.61559 17.7265C9.7214 17.6274 9.84684 17.5505 9.98424 17.5003C10.1216 17.4502 10.2681 17.4279 10.4146 17.4349C10.5611 17.4419 10.7047 17.478 10.8364 17.5409C10.9681 17.6039 11.0853 17.6924 11.1807 17.8011C11.2761 17.9097 11.3477 18.0362 11.3912 18.1728L12.8675 22.0071C12.9662 22.265 12.9572 22.5504 12.8423 22.8019C12.7275 23.0533 12.5159 23.2508 12.2532 23.3518C12.1278 23.4054 11.9914 23.4305 11.8545 23.4253Z" fill="#52AEB0"/>
<path d="M15.2916 10.0107H9.39723C9.11143 10.0107 8.83735 9.90007 8.63526 9.70306C8.43317 9.50605 8.31964 9.23885 8.31964 8.96024C8.31964 8.68163 8.43317 8.41443 8.63526 8.21742C8.83735 8.02041 9.11143 7.90974 9.39723 7.90974H15.2916C15.5774 7.90974 15.8515 8.02041 16.0536 8.21742C16.2557 8.41443 16.3692 8.68163 16.3692 8.96024C16.3692 9.23885 16.2557 9.50605 16.0536 9.70306C15.8515 9.90007 15.5774 10.0107 15.2916 10.0107Z" fill="#52AEB0"/>
<path d="M14.3092 13.8452H8.41478C8.12898 13.8452 7.85489 13.7345 7.65281 13.5375C7.45072 13.3405 7.33719 13.0733 7.33719 12.7947C7.33719 12.5161 7.45072 12.2489 7.65281 12.0519C7.85489 11.8549 8.12898 11.7442 8.41478 11.7442H14.3092C14.595 11.7442 14.8691 11.8549 15.0711 12.0519C15.2732 12.2489 15.3868 12.5161 15.3868 12.7947C15.3868 13.0733 15.2732 13.3405 15.0711 13.5375C14.8691 13.7345 14.595 13.8452 14.3092 13.8452Z" fill="#52AEB0"/>
</g>
</svg>
