<svg width="25" height="26" viewBox="0 0 25 26" fill="none" xmlns="http://www.w3.org/2000/svg">
<g id="Vector">
<mask id="path-1-inside-1_1_8208" fill="white">
<path d="M19.2569 7.19874H3.39828V5.82564H19.2569V7.19874ZM13.5931 11.318H3.39828V12.6911H13.5931V11.318ZM22.6552 0.333252V12.6911H21.5224V1.70635H1.13276V19.5566H11.3276V20.9297H0V0.333252H22.6552ZM25 16.312L24.1991 15.3412L17.5578 23.3917L14.3147 19.4605L13.5138 20.4313L17.5578 25.3333L25 16.312Z"/>
</mask>
<path d="M19.2569 7.19874H3.39828V5.82564H19.2569V7.19874ZM13.5931 11.318H3.39828V12.6911H13.5931V11.318ZM22.6552 0.333252V12.6911H21.5224V1.70635H1.13276V19.5566H11.3276V20.9297H0V0.333252H22.6552ZM25 16.312L24.1991 15.3412L17.5578 23.3917L14.3147 19.4605L13.5138 20.4313L17.5578 25.3333L25 16.312Z" fill="#E8AC37"/>
<path d="M19.2569 7.19874V12.1987H24.2569V7.19874H19.2569ZM3.39828 7.19874H-1.60172V12.1987H3.39828V7.19874ZM3.39828 5.82564V0.825645H-1.60172V5.82564H3.39828ZM19.2569 5.82564H24.2569V0.825645H19.2569V5.82564ZM13.5931 11.318H18.5931V6.31804H13.5931V11.318ZM3.39828 11.318V6.31804H-1.60172V11.318H3.39828ZM3.39828 12.6911H-1.60172V17.6911H3.39828V12.6911ZM13.5931 12.6911V17.6911H18.5931V12.6911H13.5931ZM22.6552 0.333252H27.6552V-4.66675H22.6552V0.333252ZM22.6552 12.6911V17.6911H27.6552V12.6911H22.6552ZM21.5224 12.6911H16.5224V17.6911H21.5224V12.6911ZM21.5224 1.70635H26.5224V-3.29365H21.5224V1.70635ZM1.13276 1.70635V-3.29365H-3.86724V1.70635H1.13276ZM1.13276 19.5566H-3.86724V24.5566H1.13276V19.5566ZM11.3276 19.5566H16.3276V14.5566H11.3276V19.5566ZM11.3276 20.9297V25.9297H16.3276V20.9297H11.3276ZM0 20.9297H-5V25.9297H0V20.9297ZM0 0.333252V-4.66675H-5V0.333252H0ZM25 16.312L28.8569 19.4938L31.4818 16.312L28.8569 13.1302L25 16.312ZM24.1991 15.3412L28.0561 12.1594L24.1991 7.48412L20.3422 12.1594L24.1991 15.3412ZM17.5578 23.3917L13.7008 26.5735L17.5578 31.2488L21.4147 26.5735L17.5578 23.3917ZM14.3147 19.4605L18.1716 16.2787L14.3147 11.6034L10.4578 16.2787L14.3147 19.4605ZM13.5138 20.4313L9.65689 17.2495L7.03198 20.4313L9.65689 23.6131L13.5138 20.4313ZM17.5578 25.3333L13.7008 28.5151L17.5578 33.1903L21.4147 28.5151L17.5578 25.3333ZM19.2569 2.19874H3.39828V12.1987H19.2569V2.19874ZM8.39828 7.19874V5.82564H-1.60172V7.19874H8.39828ZM3.39828 10.8256H19.2569V0.825645H3.39828V10.8256ZM14.2569 5.82564V7.19874H24.2569V5.82564H14.2569ZM13.5931 6.31804H3.39828V16.318H13.5931V6.31804ZM-1.60172 11.318V12.6911H8.39828V11.318H-1.60172ZM3.39828 17.6911H13.5931V7.69114H3.39828V17.6911ZM18.5931 12.6911V11.318H8.59311V12.6911H18.5931ZM17.6552 0.333252V12.6911H27.6552V0.333252H17.6552ZM22.6552 7.69114H21.5224V17.6911H22.6552V7.69114ZM26.5224 12.6911V1.70635H16.5224V12.6911H26.5224ZM21.5224 -3.29365H1.13276V6.70635H21.5224V-3.29365ZM-3.86724 1.70635V19.5566H6.13276V1.70635H-3.86724ZM1.13276 24.5566H11.3276V14.5566H1.13276V24.5566ZM6.32759 19.5566V20.9297H16.3276V19.5566H6.32759ZM11.3276 15.9297H0V25.9297H11.3276V15.9297ZM5 20.9297V0.333252H-5V20.9297H5ZM0 5.33325H22.6552V-4.66675H0V5.33325ZM28.8569 13.1302L28.0561 12.1594L20.3422 18.5231L21.1431 19.4938L28.8569 13.1302ZM20.3422 12.1594L13.7008 20.2099L21.4147 26.5735L28.0561 18.5231L20.3422 12.1594ZM21.4147 20.2099L18.1716 16.2787L10.4578 22.6423L13.7008 26.5735L21.4147 20.2099ZM10.4578 16.2787L9.65689 17.2495L17.3707 23.6131L18.1716 22.6424L10.4578 16.2787ZM9.65689 23.6131L13.7008 28.5151L21.4147 22.1514L17.3708 17.2495L9.65689 23.6131ZM21.4147 28.5151L28.8569 19.4938L21.1431 13.1302L13.7008 22.1514L21.4147 28.5151Z" fill="#E8AC37" mask="url(#path-1-inside-1_1_8208)"/>
</g>
</svg>
