<svg width="34" height="34" viewBox="0 0 34 34" fill="none" xmlns="http://www.w3.org/2000/svg">
<path id="Vector" fill-rule="evenodd" clip-rule="evenodd" d="M33.3333 16.6667C33.3333 25.8713 25.8713 33.3333 16.6667 33.3333C7.46192 33.3333 0 25.8713 0 16.6667C0 7.46192 7.46192 0 16.6667 0C25.8713 0 33.3333 7.46192 33.3333 16.6667ZM16.344 20.7677L25.4452 11.6667L26.6667 12.8796L16.344 23.2022L11.5355 18.3935L12.7484 17.1807L16.344 20.7677ZM20.585 11.6667L21.7978 12.8796L16.3442 18.3333L15.1312 17.1205L20.585 11.6667ZM6.66667 18.3935L11.4753 23.2022L12.6882 21.9893L7.88817 17.1807L6.66667 18.3935Z" fill="#E8AC37"/>
</svg>
