<svg width="40" height="40" viewBox="0 0 40 40" fill="none" xmlns="http://www.w3.org/2000/svg">
<g id="service-setting_svgrepo.com" clip-path="url(#clip0_1_11139)">
<g id="Layer 2">
<g id="icons Q2">
<g id="Group">
<path id="Vector" d="M23.7132 15.6668L22.2593 18.0835L23.3901 19.2502L25.7325 17.7502L26.5402 18.0835L27.1864 20.8335H28.8018L29.448 18.0835L30.2557 17.7502L32.5981 19.2502L33.7289 18.0835L32.275 15.6668C32.417 15.4045 32.5255 15.1244 32.5981 14.8335L35.2636 14.1668V12.5002L32.5981 11.8335C32.5255 11.5426 32.417 11.2625 32.275 11.0002L33.7289 8.5835L32.5981 7.41683L30.2557 8.91683L29.448 8.5835L28.8018 5.8335H27.1864L26.5402 8.5835L25.7325 8.91683L23.3901 7.41683L22.2593 8.5835L23.7132 11.0002C23.5713 11.2625 23.4627 11.5426 23.3901 11.8335L20.7246 12.5002V14.1668L23.3901 14.8335C23.4627 15.1244 23.5713 15.4045 23.7132 15.6668ZM27.9941 11.6668C28.3136 11.6668 28.6259 11.7646 28.8916 11.9477C29.1573 12.1308 29.3643 12.3911 29.4866 12.6957C29.6089 13.0002 29.6409 13.3353 29.5785 13.6586C29.5162 13.9819 29.3623 14.2789 29.1364 14.512C28.9105 14.7451 28.6226 14.9038 28.3093 14.9681C27.9959 15.0324 27.6711 14.9994 27.3759 14.8733C27.0807 14.7471 26.8284 14.5335 26.6509 14.2594C26.4734 13.9854 26.3787 13.6631 26.3787 13.3335C26.3787 12.8915 26.5489 12.4675 26.8518 12.155C27.1548 11.8424 27.5657 11.6668 27.9941 11.6668Z" fill="#52AEB0"/>
<path id="Vector_2" d="M34.6178 23.9168C34.1691 23.5435 33.6506 23.2694 33.0948 23.1117C32.539 22.954 31.9576 22.916 31.3869 23.0002L23.3905 24.5002C23.3947 23.9863 23.2964 23.477 23.1019 23.004C22.9074 22.5309 22.6207 22.1041 22.2596 21.7502L16.5248 15.8335H4.57052C4.14208 15.8335 3.73119 16.0091 3.42823 16.3217C3.12528 16.6342 2.95508 17.0581 2.95508 17.5002C2.95508 17.9422 3.12528 18.3661 3.42823 18.6787C3.73119 18.9912 4.14208 19.1668 4.57052 19.1668H15.2325L19.998 24.0835C20.0617 24.1492 20.1122 24.2271 20.1466 24.3129C20.181 24.3987 20.1988 24.4906 20.1988 24.5835C20.1988 24.6764 20.181 24.7683 20.1466 24.8541C20.1122 24.9399 20.0617 25.0178 19.998 25.0835C19.9344 25.1492 19.8588 25.2012 19.7757 25.2368C19.6925 25.2723 19.6034 25.2906 19.5134 25.2906C19.4234 25.2906 19.3343 25.2723 19.2511 25.2368C19.168 25.2012 19.0924 25.1492 19.0288 25.0835L16.2017 22.1668C15.8906 21.9261 15.5058 21.8092 15.1179 21.8377C14.7301 21.8661 14.3651 22.038 14.0902 22.3217C13.8152 22.6053 13.6486 22.9818 13.6211 23.382C13.5935 23.7822 13.7068 24.1792 13.9401 24.5002L16.7671 27.4168C17.1195 27.7998 17.5462 28.1017 18.0195 28.3028C18.4928 28.5038 19.0018 28.5995 19.5134 28.5835C20.0079 28.5813 20.4988 28.4968 20.9673 28.3335L31.9523 26.3335C32.0653 26.3123 32.1814 26.3162 32.2928 26.3449C32.4043 26.3737 32.5085 26.4266 32.5985 26.5002C32.6778 26.5732 32.7405 26.6633 32.7824 26.7641C32.8243 26.8649 32.8442 26.9739 32.8408 27.0835C32.8446 27.2785 32.782 27.4686 32.664 27.6209C32.5459 27.7731 32.3798 27.8779 32.1946 27.9168L17.171 30.7502L8.36682 23.3335H4.57052C4.14208 23.3335 3.73119 23.5091 3.42823 23.8217C3.12528 24.1342 2.95508 24.5581 2.95508 25.0002C2.95508 25.4422 3.12528 25.8661 3.42823 26.1787C3.73119 26.4912 4.14208 26.6668 4.57052 26.6668H7.23601L16.2017 34.2502L32.76 31.1668C33.5045 31.0169 34.193 30.6536 34.7466 30.1187C35.3003 29.5838 35.6967 28.8989 35.8906 28.1423C36.0844 27.3858 36.0679 26.5882 35.8428 25.8409C35.6177 25.0936 35.1932 24.4268 34.6178 23.9168Z" fill="#52AEB0"/>
</g>
</g>
</g>
</g>
<defs>
<clipPath id="clip0_1_11139">
<rect width="38.7707" height="40" fill="white" transform="translate(0.53125)"/>
</clipPath>
</defs>
</svg>
