<svg width="60" height="60" viewBox="0 0 60 60" fill="none" xmlns="http://www.w3.org/2000/svg">
<g id="setting-gears_svgrepo.com">
<g id="Group">
<path id="Vector" d="M34.3485 30.4451C34.4473 30.0896 34.3966 29.7184 34.2054 29.3997L31.225 24.4316C30.9699 24.0066 30.4944 23.7423 29.9837 23.7423C29.7338 23.7423 29.4869 23.8063 29.2695 23.9272L27.7158 24.7905C27.0844 24.3448 26.4016 23.9628 25.6777 23.6542V21.9318C25.6777 21.1721 25.0353 20.5542 24.2461 20.5542H18.2846C17.4954 20.5542 16.8532 21.1721 16.8532 21.9318V23.6541C16.1292 23.9627 15.4465 24.3448 14.815 24.7905L13.2613 23.9273C13.0439 23.8064 12.7969 23.7426 12.547 23.7426C12.0364 23.7426 11.5609 24.0066 11.3058 24.4317L8.32531 29.3996C8.13411 29.7184 8.08326 30.0896 8.18211 30.4451C8.28119 30.8006 8.51799 31.0977 8.84907 31.2815L10.3984 32.1422C10.3567 32.5151 10.3345 32.8935 10.3345 33.2769C10.3345 33.6603 10.3566 34.0388 10.3984 34.4118L8.84907 35.2726C8.51787 35.4565 8.28119 35.7535 8.18211 36.1091C8.08326 36.4644 8.13411 36.8358 8.32531 37.1544L11.3057 42.1225C11.5608 42.5476 12.0364 42.8116 12.5469 42.8116C12.7967 42.8116 13.0438 42.7478 13.2612 42.6269L14.815 41.7636C15.4464 42.2093 16.1292 42.5913 16.8531 42.8999V44.6223C16.8531 44.9903 17.002 45.3362 17.2725 45.5964C17.5429 45.8565 17.9025 46 18.2845 46H24.246C25.0352 46 25.6776 45.3819 25.6776 44.6223V42.8998C26.4015 42.5912 27.0842 42.2093 27.7156 41.7635L29.2694 42.6268C29.4868 42.7477 29.7338 42.8115 29.9835 42.8115C30.4944 42.8115 30.9698 42.5476 31.2249 42.1224L34.2053 37.1543C34.3965 36.8357 34.4472 36.4644 34.3484 36.1089C34.2495 35.7534 34.0126 35.4562 33.6816 35.2725L32.1323 34.4116C32.174 34.0386 32.1961 33.6601 32.1961 33.2767C32.1961 32.8933 32.1741 32.5148 32.1323 32.142L33.6816 31.2812C34.0128 31.0977 34.2496 30.8007 34.3485 30.4451ZM21.2653 39.2596C17.8319 39.2596 15.0488 36.5812 15.0488 33.2771C15.0488 29.9733 17.8321 27.2948 21.2653 27.2948C24.6986 27.2948 27.482 29.9733 27.482 33.2771C27.482 36.5811 24.6988 39.2596 21.2653 39.2596Z" fill="#52AEB0"/>
<path id="Vector_2" d="M26.4935 16.2931C26.4281 16.5285 26.4619 16.7741 26.5884 16.9849L28.5604 20.2723C28.7295 20.5537 29.044 20.7283 29.3819 20.7283C29.5473 20.7283 29.7106 20.686 29.8547 20.6061L30.8835 20.0345C31.3011 20.3293 31.7527 20.5813 32.2314 20.7853V21.9266C32.2314 22.1701 32.3298 22.3989 32.5089 22.5712C32.6879 22.7434 32.9257 22.8381 33.1786 22.8381H37.1233C37.6456 22.8381 38.0707 22.4292 38.0707 21.9266V20.7853C38.5493 20.5812 39.001 20.3292 39.4186 20.0344L40.4476 20.6061C40.5914 20.6861 40.7548 20.7283 40.9201 20.7283C41.2581 20.7283 41.5728 20.5536 41.7416 20.2723L43.7137 16.9849C43.8403 16.7741 43.8739 16.5285 43.8085 16.2931C43.7429 16.0579 43.5864 15.8613 43.3673 15.7396L42.3416 15.1697C42.3691 14.923 42.3842 14.6727 42.3842 14.4191C42.3842 14.1655 42.3691 13.9153 42.3416 13.6685L43.3673 13.0987C43.5864 12.977 43.7429 12.7803 43.8085 12.5451C43.8739 12.3098 43.8402 12.0643 43.7137 11.8533L41.7416 8.56588C41.5728 8.28456 41.2582 8.1098 40.9201 8.1098C40.7548 8.1098 40.5914 8.15215 40.4476 8.23221L39.4186 8.80387C39.001 8.50913 38.5495 8.25706 38.0707 8.05306V6.9116C38.0707 6.40901 37.6456 6 37.1233 6H33.1786C32.6563 6 32.2314 6.40901 32.2314 6.9116V8.05295C31.7528 8.25706 31.3011 8.50913 30.8836 8.80376L29.8547 8.2321C29.7106 8.15193 29.5474 8.10969 29.3819 8.10969C29.0441 8.10969 28.7295 8.28456 28.5604 8.56577L26.5884 11.8532C26.4619 12.0641 26.4281 12.3097 26.4935 12.545C26.5591 12.7803 26.7158 12.9768 26.9348 13.0986L27.9605 13.6684C27.9329 13.9151 27.9178 14.1654 27.9178 14.419C27.9178 14.6727 27.9329 14.9229 27.9605 15.1696L26.9348 15.7395C26.7158 15.8613 26.5591 16.0579 26.4935 16.2931ZM35.1509 10.4605C37.423 10.4605 39.2646 12.2329 39.2646 14.4191C39.2646 16.6053 37.423 18.3777 35.1509 18.3777C32.879 18.3777 31.0373 16.6053 31.0373 14.4191C31.0373 12.2329 32.879 10.4605 35.1509 10.4605Z" fill="#52AEB0"/>
<path id="Vector_3" d="M47.8056 29.0377L47.0995 28.6454C47.1186 28.4756 47.129 28.3032 47.129 28.1286C47.129 27.9539 47.1186 27.7817 47.0995 27.6118L47.8056 27.2195C47.9564 27.1357 48.0643 27.0004 48.1093 26.8384C48.1544 26.6765 48.1311 26.5074 48.0442 26.3622L46.6865 24.0994C46.5702 23.9056 46.3538 23.7854 46.1212 23.7854C46.0074 23.7854 45.8949 23.8145 45.7957 23.8696L45.0875 24.2631C44.8 24.0602 44.4892 23.8867 44.1597 23.7462V22.9605C44.1597 22.6147 43.8671 22.333 43.5077 22.333H40.7923C40.4327 22.333 40.1402 22.6147 40.1402 22.9605V23.7462C39.8106 23.8867 39.4999 24.0602 39.2124 24.2631L38.504 23.8696C38.4051 23.8145 38.2925 23.7854 38.1787 23.7854C37.9461 23.7854 37.7294 23.9056 37.6134 24.0994L36.2559 26.3622C36.1685 26.5074 36.1453 26.6765 36.1905 26.8384C36.2357 27.0004 36.3435 27.1357 36.4943 27.2195L37.2005 27.6118C37.1814 27.7816 37.171 27.9538 37.171 28.1285C37.171 28.3031 37.1814 28.4754 37.2005 28.6452L36.4943 29.0374C36.3435 29.1211 36.2356 29.2563 36.1905 29.4184C36.1453 29.5804 36.1687 29.7495 36.2559 29.8946L37.6134 32.1575C37.7295 32.3513 37.9461 32.4715 38.1787 32.4715C38.2925 32.4715 38.4049 32.4422 38.504 32.3872L39.2124 31.9937C39.4999 32.1967 39.8106 32.3701 40.1402 32.5106V33.2963C40.1402 33.4638 40.208 33.6215 40.3312 33.74C40.4544 33.8586 40.6183 33.9238 40.7923 33.9238H43.5077C43.8671 33.9238 44.1597 33.6423 44.1597 33.2963V32.5106C44.4892 32.3702 44.8001 32.1967 45.0875 31.9937L45.7957 32.3872C45.8948 32.4422 46.0074 32.4715 46.1212 32.4715C46.3538 32.4715 46.5704 32.3513 46.6865 32.1575L48.0442 29.8946C48.1312 29.7495 48.1544 29.5804 48.1093 29.4184C48.0643 29.2565 47.9564 29.1212 47.8056 29.0377ZM42.15 30.8536C40.5859 30.8536 39.3183 29.6334 39.3183 28.1286C39.3183 26.6236 40.5859 25.4035 42.15 25.4035C43.714 25.4035 44.9816 26.6237 44.9816 28.1286C44.9816 29.6335 43.7139 30.8536 42.15 30.8536Z" fill="#52AEB0"/>
</g>
</g>
</svg>
