<svg width="30" height="30" viewBox="0 0 30 30" fill="none" xmlns="http://www.w3.org/2000/svg">
<g id="Group 635">
<g id="Group">
<g id="Group_2">
<path id="Vector" d="M8.12787 8.02734H7.75173L7.04883 11.543H8.83077L8.12787 8.02734Z" fill="#52AEB0"/>
</g>
</g>
<g id="Group_3">
<g id="Group_4">
<path id="Vector_2" d="M22.3467 15.0583C22.7262 16.0778 23.2309 16.9031 23.7895 17.6052C24.3481 16.9031 24.9114 16.0778 25.2909 15.0583H22.3467Z" fill="#52AEB0"/>
</g>
</g>
<g id="Group_5">
<g id="Group_6">
<path id="Vector_3" d="M27.3635 5.33203H16.4493L18.725 23.5945C18.7653 24.3414 18.5611 25.0447 18.0736 25.5952L14.2197 30H27.3635C28.8174 30 30 28.8172 30 27.3633V8.02734C30 6.5734 28.8174 5.33203 27.3635 5.33203ZM27.3635 15.0586H27.1288C26.6287 16.6631 25.8357 17.9186 25.0116 18.9083C25.6572 19.4986 26.3476 19.9828 27.034 20.5252C27.4124 20.8282 27.4743 21.3809 27.1704 21.7603C26.868 22.1391 26.3131 22.2005 25.9354 21.8967C25.1896 21.308 24.4896 20.8153 23.7896 20.1728C23.0895 20.8153 22.4481 21.308 21.7023 21.8967C21.3246 22.2005 20.7697 22.1391 20.4673 21.7603C20.1635 21.3809 20.2253 20.8282 20.6038 20.5252C21.2901 19.9828 21.9219 19.4986 22.5675 18.9083C21.7434 17.9186 21.0089 16.6631 20.5089 15.0586H20.2742C19.7884 15.0586 19.3953 14.6655 19.3953 14.1797C19.3953 13.6939 19.7884 13.3008 20.2742 13.3008H22.9107V12.4219C22.9107 11.9361 23.3038 11.543 23.7896 11.543C24.2753 11.543 24.6684 11.9361 24.6684 12.4219V13.3008H27.3635C27.8493 13.3008 28.2424 13.6939 28.2424 14.1797C28.2424 14.6655 27.8493 15.0586 27.3635 15.0586Z" fill="#E8AC37"/>
</g>
</g>
<g id="Group_7">
<g id="Group_8">
<path id="Vector_4" d="M14.3054 2.30971C14.1415 0.993047 13.0164 0 11.6895 0H2.63653C1.18269 0 0 1.18277 0 2.63672V22.0899C0 23.5438 1.18269 24.7266 2.63653 24.7266C7.89025 24.7266 11.6697 24.7266 16.4959 24.7266C16.7523 24.4335 16.9672 24.25 16.9763 23.8674C16.9785 23.7715 14.3173 2.40486 14.3054 2.30971ZM10.7772 16.7992C10.3112 16.8952 9.83911 16.5926 9.74303 16.11L9.18133 13.3008H6.69649L6.13479 16.11C6.0404 16.5855 5.58206 16.8979 5.10063 16.7992C4.62517 16.704 4.31617 16.2414 4.41144 15.765L6.16907 6.97594C6.25144 6.56567 6.61194 6.26953 7.03074 6.26953H8.84702C9.26581 6.26953 9.62632 6.56567 9.70869 6.97594L11.4664 15.765C11.5616 16.2414 11.2527 16.704 10.7772 16.7992Z" fill="#52AEB0"/>
</g>
</g>
<g id="Group_9">
<g id="Group_10">
<path id="Vector_5" d="M10.2705 26.4841L10.4213 27.69C10.5219 28.4976 11.0584 29.3212 11.941 29.7324C13.6066 27.8988 12.5989 29.0081 14.8915 26.4841H10.2705Z" fill="#52AEB0"/>
</g>
</g>
</g>
</svg>
