<svg width="27" height="26" viewBox="0 0 27 26" fill="none" xmlns="http://www.w3.org/2000/svg">
<g clip-path="url(#clip0_11_79)">
<path d="M26.4999 12.9528C26.2662 12.6894 20.6985 6.49399 13.6811 6.49399C6.66366 6.49399 1.09594 12.6894 0.862273 12.9533C0.712657 13.1221 0.712657 13.3729 0.862273 13.5417C1.09594 13.8051 6.66366 20.0005 13.6811 20.0005C20.6985 20.0005 26.2662 13.8051 26.4999 13.5412C26.6495 13.3724 26.6495 13.1216 26.4999 12.9528ZM1.83948 13.2472C2.67999 12.3864 5.34889 9.84858 8.85365 8.4137C7.56055 9.64097 6.75372 11.3532 6.75372 13.2472C6.75372 15.1413 7.56055 16.8535 8.85365 18.0808C5.34889 16.6459 2.67999 14.108 1.83948 13.2472ZM13.6811 19.1C10.3707 19.1 7.67738 16.4744 7.67738 13.2472C7.67738 10.0201 10.3707 7.39443 13.6811 7.39443C16.9914 7.39443 19.6848 10.0201 19.6848 13.2472C19.6848 16.4744 16.9914 19.1 13.6811 19.1ZM18.5089 18.0808C19.8016 16.8535 20.6084 15.1413 20.6084 13.2472C20.6084 11.3532 19.8015 9.64102 18.5084 8.4137C22.0132 9.84853 24.6821 12.3864 25.5226 13.2472C24.6821 14.108 22.0138 16.6459 18.5089 18.0808Z" fill="#52AEB0"/>
<path d="M9.98645 13.2472H10.9101C10.9101 11.7575 12.1529 10.546 13.681 10.546V9.64551C11.6439 9.64551 9.98645 11.2613 9.98645 13.2472Z" fill="#52AEB0"/>
<path d="M16.452 13.2472C16.452 14.737 15.2092 15.9485 13.681 15.9485V16.849C15.7181 16.849 17.3756 15.2331 17.3756 13.2472H16.452Z" fill="#52AEB0"/>
<path d="M6.04987 4.80164C5.80463 5.01279 5.56682 5.23522 5.34235 5.4639L6.0092 6.08657C6.21565 5.8763 6.43502 5.67101 6.66086 5.477L6.04987 4.80164Z" fill="#52AEB0"/>
<path d="M3.5962 7.76543C3.4378 8.04276 3.28909 8.33043 3.15518 8.61993L3.99661 8.99048C4.12036 8.72393 4.25659 8.45969 4.40257 8.20442L3.5962 7.76543Z" fill="#52AEB0"/>
<path d="M21.32 4.80838L20.7086 5.48325C20.934 5.67731 21.1528 5.88216 21.3593 6.09331L22.0271 5.47113C21.8026 5.24196 21.5644 5.01909 21.32 4.80838Z" fill="#52AEB0"/>
<path d="M13.197 2.00175C12.8705 2.0148 12.5417 2.04184 12.2194 2.08143L12.3357 2.97513C12.6322 2.9382 12.9347 2.91343 13.2354 2.90131L13.197 2.00175Z" fill="#52AEB0"/>
<path d="M17.9977 2.80539L17.6522 3.6401C17.9302 3.74951 18.2064 3.87198 18.4738 4.00385L18.8908 3.20066C18.6008 3.05751 18.3002 2.92421 17.9977 2.80539Z" fill="#52AEB0"/>
<path d="M11.2519 2.24171C10.9341 2.3079 10.615 2.38895 10.3023 2.48167L10.5716 3.34292C10.8593 3.25739 11.1535 3.18308 11.4458 3.12187L11.2519 2.24171Z" fill="#52AEB0"/>
<path d="M4.69398 6.18199C4.48799 6.43052 4.29175 6.68938 4.11072 6.9514L4.87643 7.4552C5.04317 7.2148 5.2237 6.97662 5.41307 6.74744L4.69398 6.18199Z" fill="#52AEB0"/>
<path d="M16.1227 2.24443L15.9283 3.12459C16.2211 3.1858 16.5153 3.26055 16.8016 3.34652L17.0726 2.48572C16.7614 2.39255 16.4418 2.31106 16.1227 2.24443Z" fill="#52AEB0"/>
<path d="M14.1775 2.0022L14.1383 2.90171C14.4398 2.91387 14.7428 2.93908 15.0383 2.97601L15.1552 2.08281C14.8338 2.04317 14.5049 2.01569 14.1775 2.0022Z" fill="#52AEB0"/>
<path d="M23.7709 7.77533L22.9641 8.21339C23.1105 8.46999 23.2472 8.73472 23.3696 8.99994L24.212 8.62988C24.0785 8.34122 23.9308 8.05399 23.7709 7.77533Z" fill="#52AEB0"/>
<path d="M7.62517 3.66304C7.34715 3.83051 7.07373 4.01104 6.81284 4.19968L7.36331 4.9232C7.60345 4.74943 7.85424 4.58328 8.11054 4.4293L7.62517 3.66304Z" fill="#52AEB0"/>
<path d="M22.6737 6.19012L21.9546 6.75513C22.143 6.98293 22.3232 7.22111 22.4908 7.46334L23.257 6.95954C23.0745 6.69614 22.8787 6.43727 22.6737 6.19012Z" fill="#52AEB0"/>
<path d="M19.7461 3.66891L19.2599 4.43429C19.5152 4.58871 19.7665 4.75486 20.0071 4.92863L20.5576 4.20605C20.2966 4.01691 20.0232 3.83594 19.7461 3.66891Z" fill="#52AEB0"/>
<path d="M9.37546 2.80086C9.07527 2.91879 8.77417 3.05165 8.48135 3.19524L8.89747 3.99932C9.1667 3.86696 9.44381 3.74493 9.72046 3.63601L9.37546 2.80086Z" fill="#52AEB0"/>
<path d="M15.0263 23.5193C14.7298 23.5563 14.4274 23.581 14.1267 23.5932L14.165 24.4927C14.4916 24.4796 14.8204 24.4526 15.1427 24.413L15.0263 23.5193Z" fill="#52AEB0"/>
<path d="M12.3237 23.5185L12.2069 24.4117C12.5283 24.4513 12.8571 24.4787 13.1846 24.4923L13.2238 23.5928C12.9223 23.5806 12.6193 23.5554 12.3237 23.5185Z" fill="#52AEB0"/>
<path d="M10.5605 23.148L10.2894 24.0088C10.6007 24.102 10.9203 24.1834 11.2394 24.2501L11.4338 23.3699C11.1406 23.3082 10.8468 23.2335 10.5605 23.148Z" fill="#52AEB0"/>
<path d="M16.7905 23.1516C16.5028 23.2371 16.2086 23.3114 15.9163 23.3726L16.1103 24.2528C16.428 24.1866 16.7471 24.1055 17.0598 24.0128L16.7905 23.1516Z" fill="#52AEB0"/>
<path d="M6.00278 20.4012L5.33496 21.0234C5.55939 21.2525 5.7977 21.4754 6.04203 21.6861L6.65347 21.0112C6.42809 20.8172 6.20922 20.6123 6.00278 20.4012Z" fill="#52AEB0"/>
<path d="M3.99247 17.4946L3.15009 17.8647C3.28354 18.1533 3.43134 18.4405 3.5911 18.7192L4.39793 18.2811C4.25155 18.0245 4.11486 17.7598 3.99247 17.4946Z" fill="#52AEB0"/>
<path d="M4.87087 19.0312L4.10516 19.535C4.28756 19.7984 4.4834 20.0572 4.68842 20.3044L5.40701 19.7394C5.2186 19.5116 5.03852 19.2734 4.87087 19.0312Z" fill="#52AEB0"/>
<path d="M7.35544 21.5659L6.80496 22.2885C7.06545 22.4776 7.33882 22.6585 7.61593 22.8256L8.10221 22.0602C7.84682 21.9063 7.59562 21.7401 7.35544 21.5659Z" fill="#52AEB0"/>
<path d="M8.88822 22.4911L8.47119 23.2943C8.76169 23.4374 9.06233 23.5707 9.36434 23.6895L9.70979 22.8548C9.43183 22.7455 9.15563 22.623 8.88822 22.4911Z" fill="#52AEB0"/>
<path d="M19.9987 21.5713C19.7586 21.7451 19.5078 21.9112 19.2515 22.0652L19.7369 22.8314C20.0149 22.664 20.2883 22.4834 20.5492 22.2948L19.9987 21.5713Z" fill="#52AEB0"/>
<path d="M18.465 22.4951C18.1958 22.6275 17.9187 22.7495 17.6421 22.8584L17.9866 23.6936C18.2868 23.5756 18.5879 23.4428 18.8807 23.2992L18.465 22.4951Z" fill="#52AEB0"/>
<path d="M21.3528 20.4079C21.1464 20.6182 20.927 20.8235 20.7012 21.0175L21.3122 21.6928C21.5574 21.4817 21.7952 21.2592 22.0197 21.0305L21.3528 20.4079Z" fill="#52AEB0"/>
<path d="M23.3655 17.5041C23.2417 17.7706 23.1055 18.0348 22.9595 18.2901L23.7658 18.7291C23.9242 18.4517 24.0729 18.1641 24.2068 17.8746L23.3655 17.5041Z" fill="#52AEB0"/>
<path d="M22.4857 19.0393C22.319 19.2797 22.1384 19.5179 21.9491 19.747L22.6681 20.3125C22.8741 20.064 23.0703 19.8051 23.2514 19.5431L22.4857 19.0393Z" fill="#52AEB0"/>
<path d="M1.21183 0.64119C0.956897 0.64119 0.75 0.842886 0.75 1.09141V3.34248H1.67366V1.54164H3.52093V0.64119H1.21183Z" fill="#52AEB0"/>
<path d="M26.1502 0.64119H23.8411V1.54164H25.6884V3.34248H26.6121V1.09141C26.6121 0.842886 26.4052 0.64119 26.1502 0.64119Z" fill="#52AEB0"/>
<path d="M1.67366 24.9529V23.152H0.75V25.4031C0.75 25.6516 0.956897 25.8533 1.21183 25.8533H3.52093V24.9529H1.67366Z" fill="#52AEB0"/>
<path d="M25.6884 23.152V24.9529H23.8411V25.8533H26.1502C26.4052 25.8533 26.6121 25.6516 26.6121 25.4031V23.152H25.6884Z" fill="#52AEB0"/>
</g>
<defs>
<clipPath id="clip0_11_79">
<rect width="25.8621" height="25.2121" fill="white" transform="translate(0.75 0.64119)"/>
</clipPath>
</defs>
</svg>
